<svg width="441" height="46" viewBox="0 0 441 46" fill="none" xmlns="http://www.w3.org/2000/svg">
<path d="M0 1.71306H16.3681C19.261 1.71306 21.9808 2.30647 24.5275 3.46856C27.0742 4.63064 29.2994 6.18833 31.2033 8.1169C33.1071 10.0455 34.5907 12.3202 35.7033 14.8916C36.8159 17.4631 37.3352 20.1581 37.3352 23.0015C37.3352 25.8449 36.7912 28.4658 35.728 31.0372C34.6648 33.6087 33.1566 35.8834 31.2775 37.8367C29.3984 39.79 27.1484 41.3477 24.6016 42.5345C22.0549 43.6966 19.3104 44.29 16.3929 44.29H0V1.71306ZM11.0769 34.9191H13.6236C15.5522 34.9191 17.2582 34.6224 18.7665 34.0043C20.2747 33.4109 21.5357 32.5702 22.5742 31.5317C23.6126 30.4686 24.4038 29.2323 24.9478 27.7735C25.4918 26.3147 25.7637 24.7323 25.7637 23.0015C25.7637 21.2708 25.4918 19.7131 24.9231 18.2543C24.3544 16.7955 23.5632 15.5345 22.5247 14.4713C21.4863 13.4081 20.2253 12.5922 18.717 11.9988C17.2088 11.4054 15.5275 11.0839 13.6236 11.0839H11.0769V34.9191Z" fill="#9EB09F"/>
<path d="M68.6131 11.0839H55.4592V18.2048H67.8961V27.5757H55.4592V34.9191H68.6131V44.29H44.3823V1.71306H68.6131V11.0839Z" fill="#9EB09F"/>
<path d="M84.1407 1.71306L94.4264 27.6251L104.762 1.71306H116.803L98.8522 44.29H90.05L72.1489 1.71306H84.1901H84.1407Z" fill="#9EB09F"/>
<path d="M145.484 11.0839H132.33V18.2048H144.767V27.5757H132.33V34.9191H145.484V44.29H121.253V1.71306H145.484V11.0839Z" fill="#9EB09F"/>
<path d="M164.498 1.71306V34.9191H177.775V44.29H153.445V1.71306H164.522H164.498Z" fill="#9EB09F"/>
<path d="M180.718 23.0015C180.718 19.8367 181.311 16.8944 182.473 14.1499C183.635 11.4301 185.267 9.03176 187.319 7.00429C189.372 4.97682 191.869 3.36968 194.737 2.23231C197.63 1.09495 200.795 0.501541 204.256 0.501541C207.718 0.501541 210.858 1.07022 213.751 2.23231C216.644 3.36968 219.141 4.97682 221.242 7.00429C223.319 9.03176 224.951 11.4301 226.138 14.1499C227.3 16.8697 227.894 19.8367 227.894 23.0015C227.894 26.1664 227.3 29.1087 226.138 31.8532C224.976 34.573 223.344 36.9713 221.242 38.9988C219.141 41.0263 216.668 42.6334 213.751 43.7708C210.858 44.9081 207.693 45.5015 204.256 45.5015C200.819 45.5015 197.63 44.9329 194.737 43.7708C191.844 42.6334 189.372 41.0263 187.319 38.9988C185.267 36.9713 183.635 34.573 182.473 31.8532C181.311 29.1334 180.718 26.1664 180.718 23.0015ZM192.289 23.0015C192.289 24.7076 192.611 26.2653 193.253 27.6994C193.896 29.1334 194.762 30.3697 195.85 31.4329C196.938 32.496 198.223 33.312 199.657 33.8807C201.116 34.4741 202.649 34.7461 204.256 34.7461C205.863 34.7461 207.421 34.4494 208.855 33.8807C210.314 33.2873 211.575 32.4713 212.688 31.4329C213.8 30.3697 214.666 29.1334 215.308 27.6994C215.951 26.2653 216.273 24.7076 216.273 23.0015C216.273 21.2955 215.951 19.7378 215.308 18.3037C214.666 16.8697 213.8 15.6334 212.688 14.5702C211.575 13.507 210.289 12.6911 208.855 12.1224C207.396 11.529 205.863 11.257 204.256 11.257C202.649 11.257 201.091 11.5537 199.657 12.1224C198.199 12.7158 196.938 13.5318 195.85 14.5702C194.762 15.6334 193.896 16.8697 193.253 18.3037C192.611 19.7378 192.289 21.2955 192.289 23.0015Z" fill="#9EB09F"/>
<path d="M245.942 44.3147H234.865V1.71306H252.494C257.266 1.71306 260.95 2.94932 263.472 5.44658C266.019 7.9191 267.28 11.4301 267.28 15.9548C267.28 20.4795 266.019 23.9658 263.472 26.4631C260.926 28.9356 257.266 30.1966 252.494 30.1966H245.942V44.3147ZM245.942 21.2708H249.626C253.681 21.2708 255.733 19.4905 255.733 15.9548C255.733 12.4191 253.706 10.6389 249.626 10.6389H245.942V21.246V21.2708Z" fill="#9EB09F"/>
<path d="M271.26 44.3147L278.48 1.73778H289.433L297.964 24.4356L306.444 1.73778H317.398L324.617 44.3147H313.615L309.955 19.812L299.892 44.3147H295.491L285.947 19.812L282.288 44.3147H271.285H271.26Z" fill="#9EB09F"/>
<path d="M355.846 11.0839H342.692V18.2048H355.129V27.5757H342.692V34.9191H355.846V44.29H331.615V1.71306H355.846V11.0839Z" fill="#9EB09F"/>
<path d="M363.807 44.3147V1.71306H374.884L395.332 27.7488V1.71306H406.335V44.29H395.332L374.884 18.2543V44.29H363.807V44.3147Z" fill="#9EB09F"/>
<path d="M431.407 11.0839V44.29H420.33V11.0839H411.231V1.71306H440.481V11.0839H431.382H431.407Z" fill="#9EB09F"/>
</svg>
