<svg width="171" height="46" viewBox="0 0 171 46" fill="none" xmlns="http://www.w3.org/2000/svg">
<path d="M25.5807 10.0496H11.8796V17.361H24.3656V26.9979H11.8796V44.1767H0.503906V0.41272H25.5807V10.0496Z" fill="#32505B"/>
<path d="M43.7643 0.41272V24.2116C43.7643 25.4895 43.8062 26.7884 43.911 28.1292C44.0157 29.47 44.2881 30.6641 44.7909 31.7535C45.2727 32.8429 46.0478 33.7228 47.0744 34.3932C48.1009 35.0635 49.5883 35.4197 51.4948 35.4197C53.4012 35.4197 54.8467 35.0845 55.8733 34.3932C56.8998 33.7228 57.654 32.8429 58.1568 31.7535C58.6596 30.6641 58.9529 29.47 59.0576 28.1292C59.1624 26.7884 59.2043 25.4895 59.2043 24.2116V0.41272H70.5171V25.7828C70.5171 32.5915 68.9668 37.5775 65.8453 40.699C62.7238 43.8415 57.9473 45.4127 51.4738 45.4127C45.0003 45.4127 40.2029 43.8415 37.0814 40.699C33.9389 37.5566 32.3677 32.5915 32.3677 25.7828V0.41272H43.7434H43.7643Z" fill="#32505B"/>
<path d="M79.6929 44.1976V0.41272H91.0686L112.081 27.1865V0.41272H123.394V44.1976H112.081L91.0686 17.4239V44.1976H79.6929Z" fill="#32505B"/>
<path d="M132.592 0.41272H149.435C152.41 0.41272 155.217 1.02026 157.836 2.2144C160.455 3.40853 162.738 5.00071 164.687 7.01188C166.635 9.0021 168.185 11.3275 169.296 13.9881C170.427 16.6487 170.972 19.4141 170.972 22.3261C170.972 25.2381 170.427 27.9406 169.317 30.6013C168.206 33.2619 166.677 35.5873 164.729 37.5985C162.78 39.6096 160.497 41.2228 157.878 42.4169C155.259 43.611 152.452 44.2186 149.435 44.2186H132.592V0.41272ZM143.967 34.5608H146.586C148.555 34.5608 150.315 34.2465 151.866 33.639C153.416 33.0105 154.715 32.1725 155.783 31.0831C156.852 29.9937 157.669 28.7158 158.213 27.2284C158.758 25.7409 159.051 24.1068 159.051 22.3261C159.051 20.5454 158.758 18.9532 158.171 17.4448C157.585 15.9365 156.768 14.6376 155.699 13.5482C154.631 12.4588 153.332 11.6208 151.782 10.9923C150.231 10.3638 148.493 10.0705 146.565 10.0705H143.947V34.5817L143.967 34.5608Z" fill="#32505B"/>
</svg>
