<svg width="66" height="28" viewBox="0 0 66 28" fill="none" xmlns="http://www.w3.org/2000/svg">
<path d="M20.6904 0.487061H23.6658V7.5263C24.8365 5.98822 26.5517 5.26222 28.7179 5.26222C30.612 5.26222 32.1444 5.80485 33.2294 6.98367C34.3107 8.15875 34.9446 9.70057 34.9446 11.6915V22.735H31.9692V11.9647C31.9692 10.696 31.6075 9.79413 30.8879 9.06813C30.2578 8.43568 29.3555 8.07268 28.181 8.07268C26.7381 8.07268 25.6568 8.5255 24.844 9.34131C24.0312 10.2469 23.6732 11.5118 23.6732 13.1435V22.7387H20.6979V0.487061H20.6904Z" fill="#D7E0D8"/>
<path d="M37.48 22.7349V5.32581H40.4553V22.7349H37.48Z" fill="#D7E0D8"/>
<path d="M42.998 22.735V0.487061H45.9734V22.735H42.998Z" fill="#D7E0D8"/>
<path d="M50.5297 7.43648C52.2448 5.71503 54.4074 4.90295 56.9353 4.90295C59.4632 4.90295 61.5363 5.71877 63.2477 7.43648C64.9591 9.15419 65.8651 11.3285 65.8651 13.7722C65.8651 16.2159 64.9628 18.3902 63.2477 20.1079C61.5363 21.8293 59.37 22.7312 56.9353 22.7312C54.5006 22.7312 52.2448 21.8256 50.5297 20.1079C48.8183 18.3864 47.916 16.3057 47.916 13.7722C47.916 11.2386 48.8183 9.15419 50.5297 7.43648ZM50.8914 13.7722C50.8914 15.4936 51.5215 16.9419 52.6028 18.117C53.7735 19.292 55.2165 19.8384 56.9316 19.8384C58.5535 19.8384 59.9964 19.2958 61.1709 18.117C62.3416 16.9419 62.8823 15.4936 62.8823 13.7722C62.8823 12.1443 62.3416 10.696 61.1709 9.51719C60.0001 8.34212 58.5535 7.70593 56.9316 7.70593C55.2165 7.70593 53.7735 8.33837 52.6028 9.51719C51.5215 10.696 50.8914 12.1405 50.8914 13.7722Z" fill="#D7E0D8"/>
<path d="M16.276 7.43648C14.5646 5.71503 12.3983 4.90295 9.96357 4.90295C7.52885 4.90295 5.53037 5.62522 3.86745 7.14084V5.32583H0.89209V27.7534H3.86745V20.4073C5.53037 21.9341 7.58478 22.735 9.96357 22.735C12.3424 22.735 14.5646 21.8293 16.276 20.1116C17.9873 18.3902 18.8934 16.3094 18.8934 13.7759C18.8934 11.2424 17.9911 9.15793 16.276 7.44022V7.43648ZM14.2029 18.117C13.0321 19.292 11.5855 19.8384 9.96357 19.8384C8.24846 19.8384 6.80552 19.2958 5.63477 18.117C4.55349 16.9419 3.92338 15.4936 3.92338 13.7722C3.92338 12.1443 4.55349 10.696 5.63477 9.51719C6.80552 8.34212 8.24846 7.70593 9.96357 7.70593C11.5855 7.70593 13.0284 8.33837 14.2029 9.51719C15.3737 10.696 15.9143 12.1405 15.9143 13.7722C15.9143 15.4936 15.3737 16.9419 14.2029 18.117Z" fill="#D7E0D8"/>
</svg>
