<svg width="225" height="95" viewBox="0 0 225 95" fill="none" xmlns="http://www.w3.org/2000/svg">
<path d="M25.3329 62.0749C24.1304 61.0967 22.928 60.363 21.7255 59.8942C20.5231 59.4255 19.3614 59.1809 18.2201 59.1809C16.7935 59.1809 15.6114 59.5274 14.7147 60.1999C13.8179 60.8725 13.3492 61.7692 13.3492 62.8494C13.3492 63.6035 13.5734 64.2149 14.0217 64.7244C14.4701 65.2339 15.0611 65.6415 15.7948 65.988C16.5285 66.3548 17.3641 66.6605 18.2812 66.9255C19.1984 67.1904 20.1155 67.4758 21.0122 67.7815C24.6196 68.9839 27.269 70.594 28.9402 72.6116C30.6114 74.6293 31.447 77.2584 31.447 80.4989C31.447 82.6796 31.0802 84.6565 30.3465 86.4296C29.6128 88.2027 28.5326 89.7108 27.1264 90.9744C25.7201 92.238 23.9878 93.2162 21.9293 93.9092C19.8709 94.6021 17.5476 94.9486 14.9592 94.9486C9.5788 94.9486 4.5856 93.3385 0 90.1388L4.74864 81.2122C6.39946 82.6796 8.05027 83.7801 9.66033 84.4934C11.2704 85.2067 12.8804 85.5736 14.4701 85.5736C16.284 85.5736 17.6291 85.166 18.5054 84.3304C19.3818 83.4948 19.8302 82.5573 19.8302 81.4975C19.8302 80.8657 19.7079 80.295 19.4837 79.8263C19.2595 79.3575 18.8927 78.9296 18.3628 78.5219C17.8329 78.1347 17.1399 77.7475 16.3043 77.4214C15.4687 77.0953 14.4293 76.7081 13.2269 76.3005C11.8003 75.8521 10.394 75.3426 9.02853 74.7923C7.66304 74.2421 6.41984 73.5287 5.36005 72.6116C4.30027 71.6945 3.42391 70.5736 2.77174 69.1877C2.11957 67.8018 1.7731 66.0695 1.7731 63.9703C1.7731 61.8711 2.11957 59.9554 2.8125 58.2434C3.50543 56.5315 4.4837 55.0641 5.74728 53.8412C7.01087 52.6184 8.55978 51.6605 10.3736 50.988C12.2079 50.3154 14.2459 49.969 16.5082 49.969C18.6277 49.969 20.8288 50.2543 23.1114 50.8453C25.4144 51.4364 27.6155 52.2923 29.7147 53.4133L25.3125 62.0546L25.3329 62.0749Z" fill="#86A9A4"/>
<path d="M54.8643 60.5464V93.7665H43.7977V60.5464H34.708V51.1714H63.9743V60.5464H54.8846H54.8643Z" fill="#86A9A4"/>
<path d="M79.9522 51.1714V74.3236C79.9522 75.5668 79.993 76.8304 80.0949 78.1347C80.1968 79.4391 80.4617 80.6007 80.9508 81.6605C81.4196 82.7203 82.1737 83.5763 83.1723 84.2285C84.1913 84.8806 85.618 85.2271 87.4726 85.2271C89.3272 85.2271 90.7334 84.901 91.7321 84.2285C92.7307 83.5763 93.4644 82.7203 93.9535 81.6605C94.4427 80.6007 94.728 79.4391 94.8299 78.1347C94.9318 76.8304 94.9726 75.5668 94.9726 74.3236V51.1714H105.978V75.8521C105.978 82.4757 104.47 87.3263 101.433 90.363C98.3965 93.42 93.7497 94.9486 87.4522 94.9486C81.1546 94.9486 76.4875 93.42 73.4508 90.363C70.4141 87.3059 68.8652 82.4757 68.8652 75.8521V51.1714H79.9318H79.9522Z" fill="#86A9A4"/>
<path d="M114.905 51.1714H131.291C134.185 51.1714 136.916 51.7624 139.443 52.9241C141.99 54.0858 144.212 55.6347 146.107 57.5912C148.002 59.5274 149.511 61.7896 150.591 64.3779C151.691 66.9662 152.221 69.6564 152.221 72.4893C152.221 75.3222 151.691 77.9513 150.611 80.5396C149.531 83.1279 148.043 85.3901 146.148 87.3466C144.252 89.3032 142.031 90.8725 139.483 92.0342C136.936 93.1958 134.205 93.7869 131.27 93.7869H114.884V51.1714H114.905ZM125.971 84.3915H128.519C130.435 84.3915 132.146 84.0858 133.655 83.4948C135.163 82.8833 136.426 82.0681 137.466 81.0083C138.505 79.9486 139.3 78.7054 139.83 77.2583C140.36 75.8113 140.645 74.2217 140.645 72.4893C140.645 70.757 140.36 69.2081 139.789 67.7407C139.219 66.2733 138.424 65.0097 137.384 63.9499C136.345 62.8901 135.081 62.0749 133.573 61.4635C132.065 60.8521 130.373 60.5668 128.498 60.5668H125.951V84.4119L125.971 84.3915Z" fill="#86A9A4"/>
<path d="M170.38 51.1714V93.7665H159.313V51.1714H170.38Z" fill="#86A9A4"/>
<path d="M177.372 72.469C177.372 69.31 177.963 66.3548 179.124 63.6239C180.286 60.8929 181.916 58.5084 183.975 56.4703C186.054 54.4323 188.52 52.8426 191.393 51.7013C194.267 50.56 197.446 49.969 200.911 49.969C204.376 49.969 207.494 50.5396 210.408 51.7013C213.323 52.863 215.809 54.4323 217.888 56.4703C219.967 58.5084 221.597 60.8929 222.779 63.6239C223.941 66.3548 224.532 69.31 224.532 72.469C224.532 75.6279 223.941 78.5831 222.779 81.3141C221.618 84.045 219.987 86.4296 217.888 88.4676C215.789 90.5056 213.302 92.0953 210.408 93.2366C207.514 94.3779 204.355 94.969 200.911 94.969C197.467 94.969 194.267 94.3983 191.393 93.2366C188.52 92.0953 186.033 90.5056 183.975 88.4676C181.896 86.4296 180.286 84.045 179.124 81.3141C177.963 78.5831 177.372 75.6279 177.372 72.469ZM188.948 72.469C188.948 74.1605 189.274 75.7298 189.906 77.1565C190.537 78.5831 191.414 79.8263 192.514 80.8861C193.615 81.9459 194.878 82.7611 196.325 83.3521C197.772 83.9431 199.301 84.2285 200.931 84.2285C202.562 84.2285 204.09 83.9431 205.537 83.3521C206.984 82.7611 208.268 81.9459 209.369 80.8861C210.469 79.8263 211.346 78.5831 211.998 77.1565C212.63 75.7298 212.956 74.1605 212.956 72.469C212.956 70.7774 212.63 69.2081 211.998 67.7815C211.366 66.3548 210.49 65.1116 209.369 64.0518C208.268 62.9921 206.984 62.1768 205.537 61.5858C204.09 60.9948 202.562 60.7095 200.931 60.7095C199.301 60.7095 197.772 60.9948 196.325 61.5858C194.878 62.1768 193.594 62.9921 192.514 64.0518C191.414 65.1116 190.558 66.3548 189.906 67.7815C189.274 69.2081 188.948 70.7774 188.948 72.469Z" fill="#86A9A4"/>
<path d="M35.8745 0H40.9399V11.8718C42.922 9.28776 45.834 8.04451 49.5291 8.04451C52.7592 8.04451 55.3531 8.97085 57.1884 10.9454C59.0237 12.92 60.1004 15.5283 60.1004 18.8924V37.5167H55.035V19.3556C55.035 17.2104 54.4232 15.699 53.1997 14.4557C52.123 13.3831 50.5813 12.7737 48.5992 12.7737C46.1522 12.7737 44.3169 13.5294 42.922 14.9189C41.5517 16.4547 40.9399 18.5755 40.9399 21.3301V37.5167H35.8745V0Z" fill="#86A9A4"/>
<path d="M64.4062 37.541V8.16638H69.4717V37.541H64.4062Z" fill="#86A9A4"/>
<path d="M73.8037 37.5411V0H78.8447V37.5411H73.8037Z" fill="#86A9A4"/>
<path d="M86.6011 11.7255C89.5131 8.8246 93.1837 7.45947 97.4905 7.45947C101.797 7.45947 105.321 8.8246 108.233 11.7255C111.145 14.6264 112.687 18.283 112.687 22.4271C112.687 26.5713 111.145 30.2279 108.233 33.1288C105.321 36.0297 101.651 37.5655 97.4905 37.5655C93.3305 37.5655 89.5131 36.0297 86.6011 33.1288C83.6891 30.2279 82.1475 26.7175 82.1475 22.4271C82.1475 18.1367 83.6891 14.6264 86.6011 11.7255ZM87.2129 22.4271C87.2129 25.328 88.2896 27.7658 90.1249 29.7647C92.107 31.7393 94.5785 32.6656 97.4905 32.6656C100.256 32.6656 102.703 31.7393 104.685 29.7647C106.667 27.7901 107.597 25.328 107.597 22.4271C107.597 19.6725 106.667 17.2348 104.685 15.2602C102.703 13.2857 100.231 12.213 97.4905 12.213C94.5785 12.213 92.1315 13.2857 90.1249 15.2602C88.2896 17.2348 87.2129 19.6969 87.2129 22.4271Z" fill="#86A9A4"/>
<path d="M28.3612 11.7255C25.4492 8.8246 21.7786 7.45947 17.6186 7.45947C13.4586 7.45947 10.0817 8.67834 7.26756 11.238V8.16641H2.20215V46H7.26756V33.6163C10.1062 36.2003 13.581 37.5411 17.6186 37.5411C21.6563 37.5411 25.4492 36.0053 28.3612 33.1044C31.2732 30.2035 32.8149 26.6932 32.8149 22.4028C32.8149 18.1124 31.2732 14.602 28.3612 11.7011V11.7255ZM24.8375 29.7403C22.8553 31.7149 20.3838 32.6412 17.6431 32.6412C14.7311 32.6412 12.284 31.7149 10.2774 29.7403C8.44215 27.7658 7.36544 25.3037 7.36544 22.4028C7.36544 19.6481 8.44215 17.2104 10.2774 15.2358C12.2596 13.2613 14.7311 12.1887 17.6431 12.1887C20.4083 12.1887 22.8553 13.2613 24.8375 15.2358C26.8196 17.2104 27.7495 19.6725 27.7495 22.4028C27.7495 25.3037 26.8196 27.7414 24.8375 29.7403Z" fill="#86A9A4"/>
</svg>
