<svg width="151" height="48" viewBox="0 0 151 48" fill="none" xmlns="http://www.w3.org/2000/svg">
<path d="M92.5396 5.69971H96.3244V14.6414C97.8137 12.6877 99.9954 11.7654 102.751 11.7654C105.16 11.7654 107.11 12.4547 108.49 13.9522C109.865 15.4448 110.672 17.4034 110.672 19.9323V33.9606H106.887V20.2794C106.887 18.6678 106.427 17.5222 105.511 16.6C104.71 15.7966 103.562 15.3355 102.068 15.3355C100.233 15.3355 98.8571 15.9107 97.8232 16.947C96.7892 18.0974 96.3339 19.7042 96.3339 21.7768V33.9653H92.549V5.69971H92.5396Z" fill="white"/>
<path d="M113.897 33.9605V11.8462H117.682V33.9605H113.897Z" fill="white"/>
<path d="M120.917 33.9606V5.69971H124.701V33.9606H120.917Z" fill="white"/>
<path d="M130.497 14.5273C132.679 12.3406 135.43 11.3091 138.646 11.3091C141.861 11.3091 144.498 12.3454 146.675 14.5273C148.852 16.7093 150.005 19.4712 150.005 22.5754C150.005 25.6796 148.857 28.4415 146.675 30.6234C144.498 32.8101 141.743 33.9558 138.646 33.9558C135.548 33.9558 132.679 32.8054 130.497 30.6234C128.32 28.4367 127.172 25.7937 127.172 22.5754C127.172 19.3571 128.32 16.7093 130.497 14.5273V14.5273ZM130.957 22.5754C130.957 24.7621 131.759 26.6018 133.134 28.0945C134.624 29.5871 136.459 30.2812 138.641 30.2812C140.704 30.2812 142.539 29.5919 144.033 28.0945C145.523 26.6018 146.21 24.7621 146.21 22.5754C146.21 20.5075 145.523 18.6678 144.033 17.1704C142.544 15.6777 140.704 14.8696 138.641 14.8696C136.459 14.8696 134.624 15.673 133.134 17.1704C131.759 18.6678 130.957 20.5028 130.957 22.5754Z" fill="white"/>
<path d="M86.9238 14.5273C84.7468 12.3406 81.9912 11.3091 78.894 11.3091C75.7969 11.3091 73.2547 12.2265 71.1394 14.1518V11.8463H67.3545V40.3353H71.1394V31.0037C73.2547 32.9432 75.8681 33.9605 78.894 33.9605C81.92 33.9605 84.7468 32.8101 86.9238 30.6282C89.1008 28.4415 90.2534 25.7984 90.2534 22.5801C90.2534 19.3619 89.1056 16.7141 86.9238 14.5321V14.5273ZM84.2868 28.0945C82.7975 29.5871 80.9572 30.2812 78.894 30.2812C76.7123 30.2812 74.8768 29.5919 73.3875 28.0945C72.0121 26.6018 71.2105 24.7621 71.2105 22.5754C71.2105 20.5075 72.0121 18.6678 73.3875 17.1704C74.8768 15.6777 76.7123 14.8696 78.894 14.8696C80.9572 14.8696 82.7927 15.673 84.2868 17.1704C85.776 18.6678 86.4638 20.5028 86.4638 22.5754C86.4638 24.7621 85.776 26.6018 84.2868 28.0945V28.0945Z" fill="white"/>
<path d="M55.9811 23.5024C55.9811 23.2314 55.9764 22.9605 55.9622 22.6942C55.9622 22.6752 55.9622 22.6562 55.9622 22.6372C55.9622 22.6182 55.9622 22.5992 55.9622 22.5802C55.9622 22.5611 55.9622 22.5421 55.9622 22.5231C55.4452 10.0208 45.134 0 32.5321 0C28.1448 0 23.7482 1.31678 19.7356 3.7792C17.1223 4.43997 14.5753 5.2481 12.2181 6.19409C5.21277 9.00829 0.797098 12.5498 0.0998866 15.9107C-0.65424 19.552 3.00256 22.0572 6.32736 23.5452C6.1661 27.4385 7.8783 30.2051 11.1699 31.2414C12.6497 31.7073 13.935 32.1969 15.0496 32.7008C15.2725 33.2237 15.486 33.7419 15.6947 34.2648C17.274 38.1581 18.8013 41.8993 24.009 43.8245C25.0572 45.7165 27.0208 47.0047 32.5321 47.0047C45.0866 47.0047 55.3693 37.06 55.9527 24.6195C55.9716 24.2487 55.9811 23.8779 55.9811 23.5024V23.5024ZM23.6628 41.1814C22.7521 38.4005 21.6518 35.0444 15.5429 32.2112C14.0489 28.7552 12.0568 25.3848 6.99611 23.1363C7.01983 22.8178 7.05777 22.4898 7.10994 22.1476C7.81664 17.5222 10.947 12.1125 15.2773 8.01952C16.7713 6.60767 18.3602 5.39547 20.0155 4.37342C24.6493 3.20876 29.6294 2.50996 34.3771 2.50996C39.1247 2.50996 43.4503 4.07869 46.9553 6.72651C43.787 4.62537 39.9927 3.39415 35.9138 3.39415C31.8349 3.39415 25.9109 5.11025 20.6368 7.87215C14.9974 10.8242 11.3976 14.2041 10.7667 17.1371C10.4158 18.7534 10.8189 21.0495 14.7081 22.8226C17.1555 23.9397 19.0669 25.266 20.5988 26.7016C21.4383 31.3222 24.0517 35.3296 27.7085 37.987C29.3685 41.1767 31.3511 43.6106 35.9138 43.6106C39.6797 43.6106 43.2084 42.5648 46.2249 40.7441C42.8764 43.0354 38.807 44.4045 34.3723 44.4948C30.0278 44.5851 26.85 44.124 24.4596 43.2731C24.1371 42.6456 23.9094 41.9373 23.658 41.1814H23.6628ZM30.8341 36.0332C30.8863 36.2661 30.9337 36.4943 30.9764 36.7177C31.0286 36.9601 31.076 37.1978 31.1282 37.4355C26.6413 34.8067 23.5347 30.072 23.1695 24.591C23.7482 24.995 24.2841 25.3944 24.7726 25.7984C25.3845 29.9627 27.6279 33.5993 30.8341 36.0332V36.0332ZM25.5505 26.4734C28.8421 29.4635 29.9709 32.4441 30.5969 35.0111C28.0547 32.8529 26.2287 29.8724 25.5505 26.4734V26.4734ZM38.143 41.3763C40.4053 41.3763 42.5729 40.9485 44.5649 40.1737C42.2788 41.21 39.7461 41.7899 37.0805 41.7899C35.1264 41.7899 33.9644 41.4001 33.215 40.6776C34.7802 41.1292 36.4308 41.3763 38.143 41.3763ZM32.5558 39.7839C32.3803 39.4558 32.238 39.0946 32.1194 38.6953C34.2775 39.7125 36.6869 40.2877 39.2291 40.2877C41.4393 40.2877 43.5499 39.8504 45.485 39.066C43.2558 40.1261 40.7705 40.7203 38.143 40.7203C36.1889 40.7203 34.3107 40.3876 32.5558 39.7791V39.7839ZM39.2291 39.6365C36.5873 39.6365 34.0972 38.99 31.8965 37.8586C31.8017 37.464 31.7115 37.041 31.6214 36.5941C34.1067 38.2532 37.09 39.2229 40.2962 39.2229C42.2646 39.2229 44.1428 38.8569 45.8787 38.1914C43.8487 39.1183 41.6006 39.6365 39.2338 39.6365H39.2291ZM23.1411 23.7781C23.1411 23.683 23.1363 23.5927 23.1363 23.5024C23.1363 14.6082 30.3551 7.36826 39.2338 7.36826C41.6053 7.36826 43.8534 7.88642 45.8834 8.81339C44.1475 8.14787 42.2646 7.78183 40.301 7.78183C31.6499 7.78183 24.6161 14.8363 24.6161 23.5024C24.6161 23.9682 24.6398 24.4246 24.6778 24.8762C24.2035 24.5102 23.6912 24.1441 23.1458 23.7781H23.1411ZM20.9973 22.4661C21.5332 13.4483 29.0175 6.27966 38.1477 6.27966C40.7753 6.27966 43.2606 6.87387 45.4898 7.93395C43.5546 7.14959 41.444 6.71225 39.2338 6.71225C30.0468 6.71225 22.5672 14.1613 22.4913 23.3503C22.0217 23.0555 21.5237 22.756 21.002 22.4661H20.9973ZM20.3712 22.1238C20.3427 22.1095 20.3143 22.0905 20.2811 22.0763C18.2606 20.9972 17.4827 19.4522 17.9713 17.4747C19.3372 11.9746 29.876 5.21483 37.0805 5.21483C39.7461 5.21483 42.2788 5.79478 44.5649 6.83109C42.5729 6.05623 40.4053 5.6284 38.143 5.6284C28.7709 5.6284 21.0731 12.9111 20.3664 22.1238H20.3712ZM37.0805 4.55881C29.4918 4.55881 18.7918 11.4755 17.3404 17.313C16.9468 18.896 17.0843 21.1065 19.9728 22.6467C20.0913 22.7133 20.2052 22.7751 20.3238 22.8416C20.3143 23.0603 20.3048 23.279 20.3048 23.4976C20.3048 24.2344 20.357 24.9618 20.4423 25.6748C18.972 24.4056 17.1887 23.2314 14.9737 22.2236C12.1659 20.9449 10.9659 19.2763 11.3976 17.2703C12.6971 11.2663 27.5567 4.04066 35.909 4.04066C39.1627 4.04066 42.2314 4.85354 44.9301 6.27491C42.5349 5.17204 39.8789 4.55406 37.0758 4.55406L37.0805 4.55881ZM20.964 23.5024C20.964 23.4025 20.9688 23.3027 20.9735 23.2029C21.5142 23.5119 22.0217 23.8256 22.5008 24.1394C22.5577 25.7224 22.8375 27.2531 23.3071 28.6934C22.6905 27.8996 21.998 27.1152 21.2059 26.3641C21.0494 25.4324 20.964 24.4769 20.964 23.5024V23.5024ZM26.6271 35.7622C26.7647 36.0522 26.9022 36.3422 27.0397 36.6274C24.3078 34.3028 22.311 31.1368 21.4478 27.5335C23.9995 30.2146 25.4082 33.1809 26.6271 35.7622ZM27.2152 35.4817C27.1204 35.2821 27.0255 35.0777 26.9259 34.8733C28.1923 36.2471 29.6816 37.4118 31.3416 38.3054C31.4459 38.7143 31.5645 39.1041 31.7068 39.4654C30.4689 38.9615 29.3021 38.315 28.2255 37.5496C27.8887 36.8936 27.5615 36.2043 27.22 35.4865L27.2152 35.4817ZM32.1289 40.3258C32.9162 41.6188 34.2869 42.4412 37.0853 42.4412C39.8836 42.4412 42.5444 41.8232 44.9396 40.7203C42.2408 42.1465 39.1722 42.9546 35.9185 42.9546C32.2285 42.9546 30.3788 41.267 28.9037 38.7808C29.9187 39.3988 31.0001 39.917 32.1289 40.3258V40.3258ZM55.3124 24.2772C54.9092 32.2254 48.3308 38.5717 40.2962 38.5717C36.9809 38.5717 33.9123 37.4878 31.4222 35.6576C30.7677 32.6818 29.6721 29.05 25.3892 25.4562C25.3038 24.8144 25.2564 24.1631 25.2564 23.5024C25.2564 15.1929 32.0009 8.43309 40.2915 8.43309C48.5821 8.43309 54.9045 14.7746 55.3076 22.7275C55.3171 22.9842 55.3266 23.2409 55.3266 23.5024C55.3266 23.7638 55.3171 24.0205 55.3076 24.2772H55.3124ZM32.5321 0.651259C38.4323 0.651259 43.8108 2.90927 47.866 6.60767C44.1665 3.63659 39.4805 1.85395 34.3818 1.85395C30.4784 1.85395 26.2192 2.34834 22.0502 3.23728C25.4034 1.54971 28.9749 0.651259 32.5368 0.651259H32.5321ZM0.73544 16.0438C1.60814 11.851 8.9502 7.50612 18.0377 4.90584C16.9326 5.69495 15.8607 6.57439 14.8362 7.54415C10.3399 11.794 7.20954 17.2132 6.47439 22.0477C6.4317 22.3187 6.40324 22.5849 6.37479 22.8511C3.32982 21.4488 0.0856577 19.1812 0.73544 16.0438ZM11.3644 30.6187C9.59049 30.0625 6.85857 28.4415 6.96765 23.8399C11.3217 25.846 13.2568 28.7647 14.6559 31.8166C13.6789 31.4031 12.588 31.0037 11.3644 30.6187V30.6187ZM16.297 34.0176C16.1784 33.7229 16.0551 33.4234 15.9318 33.1239C21.2059 35.7765 22.2114 38.8331 23.0462 41.3811C23.2217 41.9183 23.3924 42.4364 23.5916 42.9213C19.1428 41.0008 17.7436 37.5686 16.3017 34.0128L16.297 34.0176ZM25.0287 44.162C27.1678 44.799 29.857 45.1651 33.3052 45.1651C33.6561 45.1651 34.0166 45.1651 34.3865 45.1556C39.6749 45.0462 44.4605 43.1685 48.179 40.1024C44.0906 43.9766 38.584 46.3582 32.5321 46.3582C28.0737 46.3582 26.1101 45.5216 25.0287 44.1668V44.162Z" fill="white"/>
</svg>
