<svg width="171" height="97" viewBox="0 0 171 97" fill="none" xmlns="http://www.w3.org/2000/svg">
<path d="M25.5807 61.0496H11.8796V68.361H24.3656V77.9979H11.8796V95.1767H0.503906V51.4127H25.5807V61.0496Z" fill="#32505B"/>
<path d="M43.7643 51.4127V75.2116C43.7643 76.4895 43.8062 77.7884 43.911 79.1292C44.0157 80.47 44.2881 81.6641 44.7909 82.7535C45.2727 83.8429 46.0478 84.7228 47.0744 85.3932C48.1009 86.0635 49.5883 86.4197 51.4948 86.4197C53.4012 86.4197 54.8467 86.0845 55.8733 85.3932C56.8998 84.7228 57.654 83.8429 58.1568 82.7535C58.6596 81.6641 58.9529 80.47 59.0576 79.1292C59.1624 77.7884 59.2043 76.4895 59.2043 75.2116V51.4127H70.5171V76.7828C70.5171 83.5915 68.9668 88.5775 65.8453 91.699C62.7238 94.8415 57.9473 96.4127 51.4738 96.4127C45.0003 96.4127 40.2029 94.8415 37.0814 91.699C33.9389 88.5566 32.3677 83.5915 32.3677 76.7828V51.4127H43.7434H43.7643Z" fill="#32505B"/>
<path d="M79.6929 95.1976V51.4127H91.0686L112.081 78.1865V51.4127H123.394V95.1976H112.081L91.0686 68.4239V95.1976H79.6929Z" fill="#32505B"/>
<path d="M132.592 51.4127H149.435C152.41 51.4127 155.217 52.0203 157.836 53.2144C160.455 54.4085 162.738 56.0007 164.687 58.0119C166.635 60.0021 168.185 62.3275 169.296 64.9881C170.427 67.6487 170.972 70.4141 170.972 73.3261C170.972 76.2381 170.427 78.9406 169.317 81.6013C168.206 84.2619 166.677 86.5873 164.729 88.5985C162.78 90.6096 160.497 92.2228 157.878 93.4169C155.259 94.611 152.452 95.2186 149.435 95.2186H132.592V51.4127ZM143.967 85.5608H146.586C148.555 85.5608 150.315 85.2465 151.866 84.639C153.416 84.0105 154.715 83.1725 155.783 82.0831C156.852 80.9937 157.669 79.7158 158.213 78.2284C158.758 76.7409 159.051 75.1068 159.051 73.3261C159.051 71.5454 158.758 69.9532 158.171 68.4448C157.585 66.9365 156.768 65.6376 155.699 64.5482C154.631 63.4588 153.332 62.6208 151.782 61.9923C150.231 61.3638 148.493 61.0705 146.565 61.0705H143.947V85.5817L143.967 85.5608Z" fill="#32505B"/>
<path d="M34.0283 0H39.0937V11.8718C41.0759 9.28776 43.9879 8.04451 47.6829 8.04451C50.913 8.04451 53.5069 8.97085 55.3422 10.9454C57.1775 12.92 58.2542 15.5283 58.2542 18.8924V37.5167H53.1888V19.3556C53.1888 17.2104 52.577 15.699 51.3535 14.4557C50.2768 13.3831 48.7351 12.7737 46.753 12.7737C44.306 12.7737 42.4707 13.5294 41.0758 14.9189C39.7055 16.4547 39.0937 18.5755 39.0937 21.3302V37.5167H34.0283V0Z" fill="#32505B"/>
<path d="M62.5859 37.541V8.16638H67.6514V37.541H62.5859Z" fill="#32505B"/>
<path d="M71.957 37.5411V0H77.0224V37.5411H71.957Z" fill="#32505B"/>
<path d="M84.7574 11.7255C87.6694 8.8246 91.3399 7.45947 95.6468 7.45947C99.9536 7.45947 103.477 8.8246 106.389 11.7255C109.301 14.6264 110.843 18.283 110.843 22.4271C110.843 26.5713 109.301 30.2279 106.389 33.1288C103.477 36.0297 99.8068 37.5655 95.6468 37.5655C91.4868 37.5655 87.6694 36.0297 84.7574 33.1288C81.8454 30.2279 80.3037 26.7176 80.3037 22.4271C80.3037 18.1367 81.8454 14.6264 84.7574 11.7255ZM85.3691 22.4271C85.3691 25.328 86.4458 27.7658 88.2811 29.7647C90.2632 31.7393 92.7348 32.6656 95.6468 32.6656C98.412 32.6656 100.859 31.7393 102.841 29.7647C104.823 27.7902 105.753 25.328 105.753 22.4271C105.753 19.6725 104.823 17.2348 102.841 15.2602C100.859 13.2857 98.3875 12.2131 95.6468 12.2131C92.7348 12.2131 90.2877 13.2857 88.2811 15.2602C86.4458 17.2348 85.3691 19.6969 85.3691 22.4271Z" fill="#32505B"/>
<path d="M26.5409 11.7255C23.6289 8.8246 19.9583 7.45947 15.7983 7.45947C11.6383 7.45947 8.26137 8.67834 5.44725 11.238V8.16641H0.381836V46H5.44725V33.6163C8.28584 36.2003 11.7607 37.5411 15.7983 37.5411C19.836 37.5411 23.6289 36.0053 26.5409 33.1044C29.4529 30.2035 30.9946 26.6932 30.9946 22.4028C30.9946 18.1124 29.4529 14.602 26.5409 11.7011V11.7255ZM23.0171 29.7403C21.035 31.7149 18.5635 32.6412 15.8228 32.6412C12.9108 32.6412 10.4637 31.7149 8.45713 29.7403C6.62184 27.7658 5.54513 25.3037 5.54513 22.4028C5.54513 19.6481 6.62184 17.2104 8.45713 15.2358C10.4393 13.2613 12.9108 12.1887 15.8228 12.1887C18.588 12.1887 21.035 13.2613 23.0171 15.2358C24.9993 17.2104 25.9291 19.6725 25.9291 22.4028C25.9291 25.3037 24.9993 27.7414 23.0171 29.7403Z" fill="#32505B"/>
</svg>
