<svg width="441" height="101" viewBox="0 0 441 101" fill="none" xmlns="http://www.w3.org/2000/svg">
<path d="M0 56.7131H16.3681C19.261 56.7131 21.9808 57.3065 24.5275 58.4686C27.0742 59.6306 29.2994 61.1883 31.2033 63.1169C33.1071 65.0455 34.5907 67.3202 35.7033 69.8916C36.8159 72.4631 37.3352 75.1581 37.3352 78.0015C37.3352 80.8449 36.7912 83.4658 35.728 86.0372C34.6648 88.6087 33.1566 90.8834 31.2775 92.8367C29.3984 94.79 27.1484 96.3477 24.6016 97.5345C22.0549 98.6966 19.3104 99.29 16.3929 99.29H0V56.7131ZM11.0769 89.9191H13.6236C15.5522 89.9191 17.2582 89.6224 18.7665 89.0043C20.2747 88.4109 21.5357 87.5702 22.5742 86.5317C23.6126 85.4686 24.4038 84.2323 24.9478 82.7735C25.4918 81.3147 25.7637 79.7323 25.7637 78.0015C25.7637 76.2708 25.4918 74.7131 24.9231 73.2543C24.3544 71.7955 23.5632 70.5345 22.5247 69.4713C21.4863 68.4081 20.2253 67.5922 18.717 66.9988C17.2088 66.4054 15.5275 66.0839 13.6236 66.0839H11.0769V89.9191Z" fill="#9EB09F"/>
<path d="M68.6131 66.0839H55.4592V73.2048H67.8961V82.5757H55.4592V89.9191H68.6131V99.29H44.3823V56.7131H68.6131V66.0839Z" fill="#9EB09F"/>
<path d="M84.1407 56.7131L94.4264 82.6251L104.762 56.7131H116.803L98.8522 99.29H90.05L72.1489 56.7131H84.1901H84.1407Z" fill="#9EB09F"/>
<path d="M145.484 66.0839H132.33V73.2048H144.767V82.5757H132.33V89.9191H145.484V99.29H121.253V56.7131H145.484V66.0839Z" fill="#9EB09F"/>
<path d="M164.498 56.7131V89.9191H177.775V99.29H153.445V56.7131H164.522H164.498Z" fill="#9EB09F"/>
<path d="M180.718 78.0015C180.718 74.8367 181.311 71.8944 182.473 69.1499C183.635 66.4301 185.267 64.0318 187.319 62.0043C189.372 59.9768 191.869 58.3697 194.737 57.2323C197.63 56.0949 200.795 55.5015 204.256 55.5015C207.718 55.5015 210.858 56.0702 213.751 57.2323C216.644 58.3697 219.141 59.9768 221.242 62.0043C223.319 64.0318 224.951 66.4301 226.138 69.1499C227.3 71.8697 227.894 74.8367 227.894 78.0015C227.894 81.1664 227.3 84.1087 226.138 86.8532C224.976 89.573 223.344 91.9713 221.242 93.9988C219.141 96.0263 216.668 97.6334 213.751 98.7708C210.858 99.9081 207.693 100.502 204.256 100.502C200.819 100.502 197.63 99.9329 194.737 98.7708C191.844 97.6334 189.372 96.0263 187.319 93.9988C185.267 91.9713 183.635 89.573 182.473 86.8532C181.311 84.1334 180.718 81.1664 180.718 78.0015ZM192.289 78.0015C192.289 79.7076 192.611 81.2653 193.253 82.6994C193.896 84.1334 194.762 85.3697 195.85 86.4329C196.938 87.496 198.223 88.312 199.657 88.8807C201.116 89.4741 202.649 89.7461 204.256 89.7461C205.863 89.7461 207.421 89.4494 208.855 88.8807C210.314 88.2873 211.575 87.4713 212.688 86.4329C213.8 85.3697 214.666 84.1334 215.308 82.6994C215.951 81.2653 216.273 79.7076 216.273 78.0015C216.273 76.2955 215.951 74.7378 215.308 73.3037C214.666 71.8697 213.8 70.6334 212.688 69.5702C211.575 68.507 210.289 67.6911 208.855 67.1224C207.396 66.529 205.863 66.257 204.256 66.257C202.649 66.257 201.091 66.5537 199.657 67.1224C198.199 67.7158 196.938 68.5318 195.85 69.5702C194.762 70.6334 193.896 71.8697 193.253 73.3037C192.611 74.7378 192.289 76.2955 192.289 78.0015Z" fill="#9EB09F"/>
<path d="M245.942 99.3147H234.865V56.7131H252.494C257.266 56.7131 260.95 57.9493 263.472 60.4466C266.019 62.9191 267.28 66.4301 267.28 70.9548C267.28 75.4795 266.019 78.9658 263.472 81.4631C260.926 83.9356 257.266 85.1966 252.494 85.1966H245.942V99.3147ZM245.942 76.2708H249.626C253.681 76.2708 255.733 74.4905 255.733 70.9548C255.733 67.4191 253.706 65.6389 249.626 65.6389H245.942V76.246V76.2708Z" fill="#9EB09F"/>
<path d="M271.26 99.3147L278.48 56.7378H289.433L297.964 79.4356L306.444 56.7378H317.398L324.617 99.3147H313.615L309.955 74.812L299.892 99.3147H295.491L285.947 74.812L282.288 99.3147H271.285H271.26Z" fill="#9EB09F"/>
<path d="M355.846 66.0839H342.692V73.2048H355.129V82.5757H342.692V89.9191H355.846V99.29H331.615V56.7131H355.846V66.0839Z" fill="#9EB09F"/>
<path d="M363.807 99.3147V56.7131H374.884L395.332 82.7488V56.7131H406.335V99.29H395.332L374.884 73.2543V99.29H363.807V99.3147Z" fill="#9EB09F"/>
<path d="M431.407 66.0839V99.29H420.33V66.0839H411.231V56.7131H440.481V66.0839H431.382H431.407Z" fill="#9EB09F"/>
<path d="M34.5044 0H39.5698V11.8718C41.5519 9.28776 44.4639 8.04451 48.159 8.04451C51.3891 8.04451 53.983 8.97085 55.8183 10.9454C57.6536 12.92 58.7303 15.5283 58.7303 18.8924V37.5167H53.6649V19.3556C53.6649 17.2104 53.0531 15.699 51.8296 14.4557C50.7529 13.3831 49.2112 12.7737 47.2291 12.7737C44.782 12.7737 42.9468 13.5294 41.5519 14.9189C40.1816 16.4547 39.5698 18.5755 39.5698 21.3301V37.5167H34.5044V0Z" fill="#9EB09F"/>
<path d="M63.0361 37.5411V8.16641H68.1015V37.5411H63.0361Z" fill="#9EB09F"/>
<path d="M72.4336 37.5411V0H77.4745V37.5411H72.4336Z" fill="#9EB09F"/>
<path d="M85.231 11.7255C88.143 8.8246 91.8136 7.45947 96.1204 7.45947C100.427 7.45947 103.951 8.8246 106.863 11.7255C109.775 14.6264 111.317 18.283 111.317 22.4271C111.317 26.5713 109.775 30.2279 106.863 33.1288C103.951 36.0297 100.28 37.5655 96.1204 37.5655C91.9604 37.5655 88.143 36.0297 85.231 33.1288C82.319 30.2279 80.7773 26.7175 80.7773 22.4271C80.7773 18.1367 82.319 14.6264 85.231 11.7255ZM85.8428 22.4271C85.8428 25.328 86.9195 27.7658 88.7548 29.7647C90.7369 31.7393 93.2084 32.6656 96.1204 32.6656C98.8856 32.6656 101.333 31.7393 103.315 29.7647C105.297 27.7901 106.227 25.328 106.227 22.4271C106.227 19.6725 105.297 17.2348 103.315 15.2602C101.333 13.2857 98.8611 12.213 96.1204 12.213C93.2084 12.213 90.7613 13.2857 88.7548 15.2602C86.9195 17.2348 85.8428 19.6969 85.8428 22.4271Z" fill="#9EB09F"/>
<path d="M26.9911 11.7255C24.0791 8.8246 20.4085 7.45947 16.2485 7.45947C12.0885 7.45947 8.71156 8.67834 5.89745 11.238V8.16641H0.832031V46H5.89745V33.6163C8.73603 36.2003 12.2109 37.5411 16.2485 37.5411C20.2862 37.5411 24.0791 36.0053 26.9911 33.1044C29.9031 30.2035 31.4447 26.6932 31.4447 22.4028C31.4447 18.1124 29.9031 14.602 26.9911 11.7011V11.7255ZM23.4673 29.7403C21.4852 31.7149 19.0137 32.6412 16.273 32.6412C13.361 32.6412 10.9139 31.7149 8.90733 29.7403C7.07203 27.7658 5.99533 25.3037 5.99533 22.4028C5.99533 19.6481 7.07203 17.2104 8.90733 15.2358C10.8894 13.2613 13.361 12.1887 16.273 12.1887C19.0382 12.1887 21.4852 13.2613 23.4673 15.2358C25.4495 17.2104 26.3793 19.6725 26.3793 22.4028C26.3793 25.3037 25.4495 27.7414 23.4673 29.7403Z" fill="#9EB09F"/>
</svg>
