<svg width="225" height="46" viewBox="0 0 225 46" fill="none" xmlns="http://www.w3.org/2000/svg">
<path d="M25.3329 13.0749C24.1304 12.0967 22.928 11.363 21.7255 10.8942C20.5231 10.4255 19.3614 10.1809 18.2201 10.1809C16.7935 10.1809 15.6114 10.5274 14.7147 11.1999C13.8179 11.8725 13.3492 12.7692 13.3492 13.8494C13.3492 14.6035 13.5734 15.2149 14.0217 15.7244C14.4701 16.2339 15.0611 16.6415 15.7948 16.988C16.5285 17.3548 17.3641 17.6605 18.2812 17.9255C19.1984 18.1904 20.1155 18.4758 21.0122 18.7815C24.6196 19.9839 27.269 21.594 28.9402 23.6116C30.6114 25.6293 31.447 28.2584 31.447 31.4989C31.447 33.6796 31.0802 35.6565 30.3465 37.4296C29.6128 39.2027 28.5326 40.7108 27.1264 41.9744C25.7201 43.238 23.9878 44.2162 21.9293 44.9092C19.8709 45.6021 17.5476 45.9486 14.9592 45.9486C9.5788 45.9486 4.5856 44.3385 0 41.1388L4.74864 32.2122C6.39946 33.6796 8.05027 34.7801 9.66033 35.4934C11.2704 36.2067 12.8804 36.5736 14.4701 36.5736C16.284 36.5736 17.6291 36.166 18.5054 35.3304C19.3818 34.4948 19.8302 33.5573 19.8302 32.4975C19.8302 31.8657 19.7079 31.295 19.4837 30.8263C19.2595 30.3575 18.8927 29.9296 18.3628 29.5219C17.8329 29.1347 17.1399 28.7475 16.3043 28.4214C15.4687 28.0953 14.4293 27.7081 13.2269 27.3005C11.8003 26.8521 10.394 26.3426 9.02853 25.7923C7.66304 25.2421 6.41984 24.5287 5.36005 23.6116C4.30027 22.6945 3.42391 21.5736 2.77174 20.1877C2.11957 18.8018 1.7731 17.0695 1.7731 14.9703C1.7731 12.8711 2.11957 10.9554 2.8125 9.24342C3.50543 7.53146 4.4837 6.06407 5.74728 4.84124C7.01087 3.61842 8.55978 2.66054 10.3736 1.98799C12.2079 1.31543 14.2459 0.968964 16.5082 0.968964C18.6277 0.968964 20.8288 1.25429 23.1114 1.84532C25.4144 2.43636 27.6155 3.29233 29.7147 4.41326L25.3125 13.0546L25.3329 13.0749Z" fill="#86A9A4"/>
<path d="M54.8643 11.5464V44.7665H43.7977V11.5464H34.708V2.17139H63.9743V11.5464H54.8846H54.8643Z" fill="#86A9A4"/>
<path d="M79.9522 2.17139V25.3236C79.9522 26.5668 79.993 27.8304 80.0949 29.1347C80.1968 30.4391 80.4617 31.6007 80.9508 32.6605C81.4196 33.7203 82.1737 34.5763 83.1723 35.2285C84.1913 35.8806 85.618 36.2271 87.4726 36.2271C89.3272 36.2271 90.7334 35.901 91.7321 35.2285C92.7307 34.5763 93.4644 33.7203 93.9535 32.6605C94.4427 31.6007 94.728 30.4391 94.8299 29.1347C94.9318 27.8304 94.9726 26.5668 94.9726 25.3236V2.17139H105.978V26.8521C105.978 33.4757 104.47 38.3263 101.433 41.363C98.3965 44.42 93.7497 45.9486 87.4522 45.9486C81.1546 45.9486 76.4875 44.42 73.4508 41.363C70.4141 38.3059 68.8652 33.4757 68.8652 26.8521V2.17139H79.9318H79.9522Z" fill="#86A9A4"/>
<path d="M114.905 2.17139H131.291C134.185 2.17139 136.916 2.76242 139.443 3.92411C141.99 5.08579 144.212 6.6347 146.107 8.59122C148.002 10.5274 149.511 12.7896 150.591 15.3779C151.691 17.9662 152.221 20.6564 152.221 23.4893C152.221 26.3222 151.691 28.9513 150.611 31.5396C149.531 34.1279 148.043 36.3901 146.148 38.3466C144.252 40.3032 142.031 41.8725 139.483 43.0342C136.936 44.1958 134.205 44.7869 131.27 44.7869H114.884V2.17139H114.905ZM125.971 35.3915H128.519C130.435 35.3915 132.146 35.0858 133.655 34.4948C135.163 33.8833 136.426 33.0681 137.466 32.0083C138.505 30.9486 139.3 29.7054 139.83 28.2583C140.36 26.8113 140.645 25.2217 140.645 23.4893C140.645 21.757 140.36 20.2081 139.789 18.7407C139.219 17.2733 138.424 16.0097 137.384 14.9499C136.345 13.8901 135.081 13.0749 133.573 12.4635C132.065 11.8521 130.373 11.5668 128.498 11.5668H125.951V35.4119L125.971 35.3915Z" fill="#86A9A4"/>
<path d="M170.38 2.17139V44.7665H159.313V2.17139H170.38Z" fill="#86A9A4"/>
<path d="M177.372 23.469C177.372 20.31 177.963 17.3548 179.124 14.6239C180.286 11.8929 181.916 9.50837 183.975 7.47032C186.054 5.43228 188.52 3.84261 191.393 2.7013C194.267 1.56 197.446 0.968964 200.911 0.968964C204.376 0.968964 207.494 1.53962 210.408 2.7013C213.323 3.86299 215.809 5.43228 217.888 7.47032C219.967 9.50837 221.597 11.8929 222.779 14.6239C223.941 17.3548 224.532 20.31 224.532 23.469C224.532 26.6279 223.941 29.5831 222.779 32.3141C221.618 35.045 219.987 37.4296 217.888 39.4676C215.789 41.5056 213.302 43.0953 210.408 44.2366C207.514 45.3779 204.355 45.969 200.911 45.969C197.467 45.969 194.267 45.3983 191.393 44.2366C188.52 43.0953 186.033 41.5056 183.975 39.4676C181.896 37.4296 180.286 35.045 179.124 32.3141C177.963 29.5831 177.372 26.6279 177.372 23.469ZM188.948 23.469C188.948 25.1605 189.274 26.7298 189.906 28.1565C190.537 29.5831 191.414 30.8263 192.514 31.8861C193.615 32.9459 194.878 33.7611 196.325 34.3521C197.772 34.9431 199.301 35.2285 200.931 35.2285C202.562 35.2285 204.09 34.9431 205.537 34.3521C206.984 33.7611 208.268 32.9459 209.369 31.8861C210.469 30.8263 211.346 29.5831 211.998 28.1565C212.63 26.7298 212.956 25.1605 212.956 23.469C212.956 21.7774 212.63 20.2081 211.998 18.7815C211.366 17.3548 210.49 16.1116 209.369 15.0518C208.268 13.9921 206.984 13.1768 205.537 12.5858C204.09 11.9948 202.562 11.7095 200.931 11.7095C199.301 11.7095 197.772 11.9948 196.325 12.5858C194.878 13.1768 193.594 13.9921 192.514 15.0518C191.414 16.1116 190.558 17.3548 189.906 18.7815C189.274 20.2081 188.948 21.7774 188.948 23.469Z" fill="#86A9A4"/>
</svg>
