<svg width="45" height="38" viewBox="0 0 45 38" fill="none" xmlns="http://www.w3.org/2000/svg">
<path d="M44.9508 18.5019C44.9508 18.2886 44.9471 18.0752 44.9359 17.8657C44.9359 17.8507 44.9359 17.8357 44.9359 17.8208C44.9359 17.8058 44.9359 17.7908 44.9359 17.7759C44.9359 17.7609 44.9359 17.7459 44.9359 17.731C44.5295 7.88874 36.4237 0 26.517 0C23.0681 0 19.6118 1.03661 16.4575 2.97512C14.403 3.4953 12.4008 4.13149 10.5478 4.8762C5.04074 7.09163 1.56949 9.87964 1.02139 12.5254C0.42856 15.392 3.30325 17.3642 5.91694 18.5355C5.79017 21.6005 7.13616 23.7785 9.72375 24.5943C10.8871 24.9611 11.8975 25.3465 12.7737 25.7432C12.9489 26.1548 13.1167 26.5628 13.2808 26.9744C14.5224 30.0393 15.7229 32.9845 19.8169 34.5001C20.6409 35.9896 22.1845 37.0037 26.517 37.0037C36.3864 37.0037 44.4698 29.1749 44.9284 19.3813C44.9433 19.0894 44.9508 18.7975 44.9508 18.5019ZM19.5447 32.4194C18.8288 30.2302 17.9638 27.5881 13.1615 25.3577C11.987 22.6371 10.421 19.9838 6.44266 18.2137C6.4613 17.963 6.49113 17.7048 6.53214 17.4353C7.08769 13.7941 9.54852 9.53535 12.9527 6.31324C14.1271 5.20178 15.3762 4.2475 16.6774 3.4429C20.3202 2.52604 24.2351 1.97593 27.9674 1.97593C31.6996 1.97593 35.1001 3.21088 37.8554 5.29534C35.3648 3.64125 32.382 2.67199 29.1754 2.67199C25.9689 2.67199 21.312 4.02296 17.1659 6.19723C12.7327 8.52119 9.90272 11.182 9.40683 13.4909C9.13092 14.7633 9.44785 16.5708 12.5052 17.9667C14.4291 18.8462 15.9317 19.8903 17.1361 21.0204C17.796 24.6579 19.8504 27.8127 22.7251 29.9046C24.0301 32.4157 25.5886 34.3317 29.1754 34.3317C32.1359 34.3317 34.9099 33.5084 37.2812 32.0751C34.6489 33.8789 31.4498 34.9567 27.9637 35.0278C24.5483 35.0989 22.0502 34.7359 20.1711 34.066C19.9175 33.5721 19.7386 33.0145 19.5409 32.4194H19.5447ZM25.1822 28.3665C25.2232 28.5499 25.2605 28.7295 25.294 28.9054C25.3351 29.0963 25.3723 29.2834 25.4134 29.4705C21.8862 27.401 19.444 23.6737 19.1569 19.3589C19.6118 19.6769 20.0331 19.9913 20.4171 20.3094C20.8981 23.5876 22.6617 26.4505 25.1822 28.3665ZM21.0286 20.8408C23.6162 23.1947 24.5036 25.5411 24.9958 27.5619C22.9973 25.8629 21.5618 23.5165 21.0286 20.8408ZM30.9278 32.5729C32.7063 32.5729 34.4103 32.2361 35.9763 31.6261C34.1791 32.4419 32.1881 32.8984 30.0927 32.8984C28.5565 32.8984 27.643 32.5916 27.0539 32.0228C28.2843 32.3783 29.5818 32.5729 30.9278 32.5729ZM26.5356 31.3192C26.3977 31.061 26.2858 30.7766 26.1926 30.4622C27.8891 31.2631 29.7832 31.7159 31.7817 31.7159C33.5192 31.7159 35.1783 31.3716 36.6996 30.7541C34.9472 31.5886 32.9934 32.0564 30.9278 32.0564C29.3917 32.0564 27.9152 31.7945 26.5356 31.3155V31.3192ZM31.7817 31.2032C29.7049 31.2032 27.7474 30.6942 26.0174 29.8036C25.9428 29.493 25.872 29.1599 25.8011 28.8081C27.7549 30.1142 30.1001 30.8776 32.6206 30.8776C34.1679 30.8776 35.6444 30.5895 37.0091 30.0655C35.4132 30.7953 33.6459 31.2032 31.7854 31.2032H31.7817ZM19.1345 18.7189C19.1345 18.6441 19.1308 18.573 19.1308 18.5019C19.1308 11.5 24.8056 5.80055 31.7854 5.80055C33.6497 5.80055 35.417 6.20846 37.0128 6.9382C35.6481 6.41428 34.1679 6.12612 32.6243 6.12612C25.8235 6.12612 20.2941 11.6797 20.2941 18.5019C20.2941 18.8686 20.3127 19.2279 20.3426 19.5834C19.9697 19.2952 19.567 19.0071 19.1383 18.7189H19.1345ZM17.4492 17.6861C17.8706 10.5869 23.7542 4.94356 30.9316 4.94356C32.9972 4.94356 34.9509 5.41135 36.7033 6.24588C35.1821 5.6284 33.5229 5.28411 31.7854 5.28411C24.5633 5.28411 18.6834 11.1483 18.6237 18.3821C18.2546 18.1501 17.8631 17.9143 17.453 17.6861H17.4492ZM16.9571 17.4166C16.9347 17.4054 16.9123 17.3904 16.8862 17.3792C15.2979 16.5297 14.6864 15.3134 15.0705 13.7566C16.1443 9.42682 24.429 4.10529 30.0927 4.10529C32.1881 4.10529 34.1791 4.56185 35.9763 5.37767C34.4103 4.76767 32.7063 4.43087 30.9278 4.43087C23.5603 4.43087 17.5089 10.1641 16.9534 17.4166H16.9571ZM30.0927 3.58885C24.127 3.58885 15.7155 9.03388 14.5746 13.6294C14.2651 14.8756 14.3732 16.6158 16.6439 17.8283C16.7371 17.8806 16.8266 17.9293 16.9198 17.9817C16.9123 18.1538 16.9049 18.326 16.9049 18.4981C16.9049 19.0782 16.9459 19.6508 17.013 20.2121C15.8572 19.2129 14.4552 18.2886 12.714 17.4952C10.5067 16.4885 9.56343 15.175 9.90272 13.5957C10.9243 8.86922 22.6058 3.18094 29.1717 3.18094C31.7295 3.18094 34.1418 3.82088 36.2634 4.93982C34.3804 4.07161 32.2925 3.58511 30.0889 3.58511L30.0927 3.58885ZM17.4231 18.5019C17.4231 18.4233 17.4269 18.3447 17.4306 18.2661C17.8557 18.5094 18.2546 18.7563 18.6312 19.0033C18.6759 20.2495 18.8959 21.4545 19.265 22.5884C18.7803 21.9635 18.236 21.346 17.6133 20.7547C17.4903 20.0212 17.4231 19.269 17.4231 18.5019ZM21.875 28.1532C21.9831 28.3815 22.0912 28.6098 22.1994 28.8343C20.0518 27.0043 18.482 24.512 17.8035 21.6753C19.8094 23.786 20.9168 26.1212 21.875 28.1532ZM22.3373 27.9324C22.2628 27.7753 22.1882 27.6143 22.1099 27.4534C23.1054 28.5349 24.2762 29.4518 25.5811 30.1554C25.6632 30.4772 25.7564 30.7841 25.8682 31.0685C24.8951 30.6718 23.9779 30.1628 23.1315 29.5603C22.8668 29.0439 22.6095 28.5013 22.3411 27.9362L22.3373 27.9324ZM26.2001 31.7458C26.819 32.7637 27.8966 33.4111 30.0964 33.4111C32.2962 33.4111 34.3879 32.9246 36.2708 32.0564C34.1493 33.1791 31.7369 33.8153 29.1792 33.8153C26.2784 33.8153 24.8243 32.4868 23.6647 30.5296C24.4626 31.0161 25.3127 31.424 26.2001 31.7458ZM44.4251 19.1119C44.1082 25.369 38.9367 30.3649 32.6206 30.3649C30.0144 30.3649 27.602 29.5117 25.6445 28.0709C25.13 25.7282 24.2687 22.8691 20.9019 20.0399C20.8347 19.5347 20.7975 19.022 20.7975 18.5019C20.7975 11.9604 26.0994 6.63882 32.6169 6.63882C39.1343 6.63882 44.1044 11.631 44.4213 17.8919C44.4288 18.094 44.4363 18.296 44.4363 18.5019C44.4363 18.7077 44.4288 18.9098 44.4213 19.1119H44.4251ZM26.517 0.512693C31.1553 0.512693 35.3834 2.29028 38.5713 5.20178C35.6631 2.86285 31.9793 1.45949 27.9711 1.45949C24.9026 1.45949 21.5543 1.84869 18.277 2.5485C20.913 1.21999 23.7206 0.512693 26.5207 0.512693H26.517ZM1.52102 12.6302C2.20706 9.32952 7.97881 5.90907 15.1227 3.86204C14.2539 4.48326 13.4113 5.17558 12.6059 5.93901C9.07127 9.28461 6.61044 13.5508 6.03252 17.3567C5.99897 17.57 5.97659 17.7796 5.95422 17.9892C3.56051 16.8852 1.01021 15.1001 1.52102 12.6302ZM9.87662 24.1041C8.48216 23.6662 6.33453 22.3901 6.42029 18.7676C9.84307 20.3468 11.3643 22.6446 12.4642 25.0471C11.6961 24.7216 10.8386 24.4072 9.87662 24.1041ZM13.7543 26.7798C13.6611 26.5478 13.5641 26.312 13.4672 26.0763C17.6133 28.1645 18.4037 30.5707 19.06 32.5766C19.1979 32.9995 19.3321 33.4074 19.4887 33.7891C15.9914 32.2772 14.8915 29.5753 13.758 26.7761L13.7543 26.7798ZM20.6185 34.7659C22.3 35.2673 24.4141 35.5555 27.1248 35.5555C27.4007 35.5555 27.684 35.5555 27.9749 35.548C32.1322 35.4619 35.8942 33.9837 38.8174 31.5699C35.6034 34.6199 31.2746 36.4948 26.517 36.4948C23.0122 36.4948 21.4686 35.8361 20.6185 34.7696V34.7659Z" fill="#D7E0D8"/>
</svg>
